<?xml version="1.0" encoding="UTF-8" standalone="no"?>
<svg
   xmlns:dc="http://purl.org/dc/elements/1.1/"
   xmlns:cc="http://creativecommons.org/ns#"
   xmlns:rdf="http://www.w3.org/1999/02/22-rdf-syntax-ns#"
   xmlns:svg="http://www.w3.org/2000/svg"
   xmlns="http://www.w3.org/2000/svg"
   xmlns:sodipodi="http://sodipodi.sourceforge.net/DTD/sodipodi-0.dtd"
   xmlns:inkscape="http://www.inkscape.org/namespaces/inkscape"
   inkscape:export-ydpi="198"
   inkscape:export-xdpi="198"
   inkscape:export-filename="/home/ivan/Scrivania/fastex2020-2.png"
   sodipodi:docname="fastex-icon.svg"
   inkscape:version="1.0 (4035a4fb49, 2020-05-01)"
   id="svg8"
   version="1.1"
   viewBox="0 0 29.020658 27.8592"
   height="27.8592mm"
   width="29.020658mm">
  <defs
     id="defs2">
    <marker
       inkscape:isstock="true"
       style="overflow:visible"
       id="Arrow1Lend"
       refX="0"
       refY="0"
       orient="auto"
       inkscape:stockid="Arrow1Lend">
      <path
         transform="matrix(-0.8,0,0,-0.8,-10,0)"
         style="fill:#ffffff;fill-opacity:1;fill-rule:evenodd;stroke:none;stroke-width:1pt;stroke-opacity:1"
         d="M 0,0 5,-5 -12.5,0 5,5 Z"
         id="path875" />
    </marker>
    <marker
       inkscape:isstock="true"
       style="overflow:visible"
       id="Arrow1Send"
       refX="0"
       refY="0"
       orient="auto"
       inkscape:stockid="Arrow1Send">
      <path
         transform="matrix(-0.2,0,0,-0.2,-1.2,0)"
         style="fill:#ffffff;fill-opacity:1;fill-rule:evenodd;stroke:#000000;stroke-width:1pt;stroke-opacity:1"
         d="M 0,0 5,-5 -12.5,0 5,5 Z"
         id="path887" />
    </marker>
    <marker
       inkscape:isstock="true"
       style="overflow:visible"
       id="Arrow1Lstart"
       refX="0"
       refY="0"
       orient="auto"
       inkscape:stockid="Arrow1Lstart">
      <path
         transform="matrix(0.8,0,0,0.8,10,0)"
         style="fill:#ffffff;fill-opacity:1;fill-rule:evenodd;stroke:none;stroke-width:1pt;stroke-opacity:1"
         d="M 0,0 5,-5 -12.5,0 5,5 Z"
         id="path872" />
    </marker>
    <inkscape:perspective
       id="perspective965"
       inkscape:persp3d-origin="89.915186 : -170.37147 : 1"
       inkscape:vp_z="194.91516 : -123.20928 : 1"
       inkscape:vp_y="0 : 952.77157 : 0"
       inkscape:vp_x="-15.084813 : -123.20928 : 1"
       sodipodi:type="inkscape:persp3d" />
  </defs>
  <sodipodi:namedview
     inkscape:window-maximized="0"
     inkscape:window-y="0"
     inkscape:window-x="0"
     inkscape:window-height="712"
     inkscape:window-width="1366"
     inkscape:guide-bbox="true"
     showguides="true"
     showgrid="false"
     inkscape:document-rotation="0"
     inkscape:current-layer="g2044"
     inkscape:document-units="mm"
     inkscape:cy="52.203141"
     inkscape:cx="47.478252"
     inkscape:zoom="3.0416578"
     inkscape:pageshadow="2"
     inkscape:pageopacity="0.0"
     borderopacity="1.0"
     bordercolor="#666666"
     pagecolor="#ffffff"
     id="base"
     fit-margin-top="0"
     fit-margin-left="0"
     fit-margin-right="0"
     fit-margin-bottom="0">
    <sodipodi:guide
       id="guide999"
       orientation="1,0"
       position="4.706088,13.010011" />
  </sodipodi:namedview>
  <metadata
     id="metadata5">
    <rdf:RDF>
      <cc:Work
         rdf:about="">
        <dc:format>image/svg+xml</dc:format>
        <dc:type
           rdf:resource="http://purl.org/dc/dcmitype/StillImage" />
        <dc:title></dc:title>
      </cc:Work>
    </rdf:RDF>
  </metadata>
  <g
     id="layer1"
     inkscape:groupmode="layer"
     inkscape:label="Livello 1"
     transform="translate(-28.443244,-129.55152)">
    <g
       id="g2020">
      <g
         id="g899">
        <g
           style="stroke:#000000;stroke-opacity:1"
           transform="translate(0.20250507,0.74795216)"
           id="g2044">
          <g
             style="stroke:none;stroke-width:0.3;stroke-miterlimit:4;stroke-dasharray:none"
             id="g962">
            <ellipse
               style="opacity:0.609564;fill:#ffffff;stroke:none;stroke-width:0.3;stroke-miterlimit:4;stroke-dasharray:none;stroke-dashoffset:0;stroke-opacity:1;marker-start:url(#Arrow1Lstart);marker-end:url(#Arrow1Lend)"
               id="path870"
               cx="-122.17477"
               cy="-85.578781"
               rx="13.929599"
               ry="13.9296"
               transform="rotate(-141.89734)" />
            <g
               style="stroke:none;stroke-width:0.3;stroke-miterlimit:4;stroke-dasharray:none"
               id="g915"
               transform="translate(0.76863434,0.58793835)">
              <g
                 aria-label="F"
                 id="text835"
                 style="font-size:10.5833px;line-height:1.25;font-family:Nakula;-inkscape-font-specification:'Nakula, Normal';fill:#800000;stroke:none;stroke-width:0.3;stroke-miterlimit:4;stroke-dasharray:none;stroke-opacity:1"
                 transform="translate(0.72891067,4.2333335)">
                <path
                   d="m 46.940042,129.67162 c -1.750448,-0.0658 -4.312767,2.04543 -5.711128,2.09195 -1.39836,0.0465 -1.795158,-0.37167 -2.512168,-0.53883 -0.71701,-0.16716 -2.423359,-0.56393 -2.992054,0.16019 -0.568695,0.72412 -0.470254,2.34611 -0.470254,2.34611 h 1.534785 c 0.423745,0 0.7183,-0.062 0.883664,-0.18604 0.168809,-0.12402 0.329006,-0.39618 0.48059,-0.81648 h 0.242878 l -0.490924,2.45462 H 37.66255 c 0.02067,-0.43063 -0.02756,-0.70796 -0.144693,-0.83199 -0.117133,-0.12402 -0.389295,-0.18603 -0.816485,-0.18603 h -1.534786 l -0.459918,2.30993 c -0.07579,0.37895 -0.06718,0.627 0.02584,0.74413 0.09302,0.11713 0.341063,0.18604 0.744138,0.20671 l -0.04134,0.20154 h -2.96105 l 0.04134,-0.20154 c 0.403075,-0.0275 0.670069,-0.1016 0.800982,-0.22221 0.134359,-0.12402 0.244601,-0.40652 0.330728,-0.84749 l 0.919838,-4.58368 c 0.07235,-0.36863 0.06373,-0.61151 -0.02584,-0.72864 -0.08613,-0.11713 -0.322116,-0.1912 -0.707965,-0.22221 l 0.04134,-0.20154 16.109667,0.0619 c 0,0 -1.293856,-0.94461 -3.044304,-1.01038 z"
                   style="font-style:italic;fill:#800000;stroke:none;stroke-width:0.3;stroke-miterlimit:4;stroke-dasharray:none;stroke-opacity:1"
                   id="path859"
                   sodipodi:nodetypes="zzzzcscccccssccsccccccccccczz" />
              </g>
              <g
                 style="font-size:11.8133px;line-height:1.25;font-family:Nakula;-inkscape-font-specification:'Nakula, Normal';fill:#008080;stroke:none;stroke-width:0.3;stroke-miterlimit:4;stroke-dasharray:none;stroke-opacity:1"
                 id="text839"
                 transform="scale(1.1162178,0.89588251)"
                 aria-label="a">
                <path
                   id="path2022"
                   style="font-style:italic;fill:#008080;stroke:none;stroke-width:0.3;stroke-miterlimit:4;stroke-dasharray:none;stroke-opacity:1"
                   d="m 39.995721,157.75915 q -0.657576,0.58836 -1.176715,0.58836 -0.674881,0 -0.58259,-0.85946 -1.188252,0.85946 -1.897742,0.85946 -0.542212,0 -0.824854,-0.35186 -0.276875,-0.35186 -0.16151,-0.91138 0.1269,-0.64604 0.628735,-1.02674 0.438384,-0.33456 0.876768,-0.53067 0.403775,-0.18459 1.909279,-0.7441 l 0.144205,-0.72103 q 0.196119,-0.9806 -0.703722,-0.9806 -0.351861,0 -0.634503,0.17305 -0.282643,0.16728 -0.328788,0.40377 -0.01731,0.0808 -0.02307,0.24227 0,0.15574 -0.0173,0.23073 -0.04038,0.19612 -0.230728,0.34609 -0.190351,0.14997 -0.398007,0.14997 -0.207656,0 -0.328788,-0.14997 -0.121133,-0.14997 -0.07499,-0.35763 0.109596,-0.55375 0.755636,-0.93445 0.651808,-0.38647 1.488199,-0.38647 1.061351,0 1.338225,0.65181 0.16151,0.3807 -0.01154,1.24016 l -0.461457,2.30152 q -0.138437,0.68642 0.213424,0.68642 0.248033,0 0.565284,-0.22496 z m -1.632404,-0.98059 0.346093,-1.71316 q -1.147875,0.38647 -1.643941,0.75563 -0.496066,0.3634 -0.599894,0.88831 l -0.01154,0.0461 q -0.07499,0.38071 0.08652,0.64604 0.167278,0.26534 0.478761,0.26534 0.392239,0 0.917146,-0.2711 0.340325,-0.17882 0.426848,-0.6172 z" />
              </g>
              <g
                 aria-label="T"
                 id="text843"
                 style="font-size:10.5833px;line-height:1.25;font-family:Nakula;-inkscape-font-specification:'Nakula, Normal';stroke:none;stroke-width:0.3;stroke-miterlimit:4;stroke-dasharray:none;stroke-opacity:1"
                 transform="translate(0.52916667,3.7041668)">
                <path
                   d="m 38.712799,140.69653 h -0.253213 c -0.120578,-0.58221 -0.280775,-0.95256 -0.48059,-1.11104 -0.196369,-0.16191 -0.595999,-0.24287 -1.198889,-0.24287 H 36.2065 v 5.4105 c 0,0.38585 0.06029,0.63562 0.180867,0.74931 0.124023,0.11369 0.66455,0.18086 1.098631,0.20153 v 0.20154 h -3.351716 v -0.20154 c 0.440971,-0.0275 0.716577,-0.0999 0.82682,-0.21704 0.110243,-0.12057 0.165364,-0.40479 0.165364,-0.85265 v -5.29165 h -0.568438 c -0.592555,0 -0.990462,0.0827 -1.193722,0.24804 -0.199815,0.16192 -0.363457,0.53054 -0.490925,1.10587 h -0.253214 l 0.06201,-1.79833 h 5.968609 z"
                   style="stroke:none;stroke-width:0.3;stroke-miterlimit:4;stroke-dasharray:none;stroke-opacity:1"
                   id="path853"
                   sodipodi:nodetypes="cccscsccccccscscccccc" />
              </g>
              <g
                 aria-label="E"
                 id="text847"
                 style="font-size:10.5833px;line-height:1.25;font-family:Nakula;-inkscape-font-specification:'Nakula, Normal';stroke:none;stroke-width:0.3;stroke-miterlimit:4;stroke-dasharray:none;stroke-opacity:1"
                 transform="translate(0.52916667,3.7041668)">
                <path
                   d="m 44.174362,144.75255 c 0.349991,-0.42673 -0.978136,1.15295 -0.978136,1.15295 h -5.710228 v -0.20154 c 0.382405,-0.0275 0.630451,-0.0999 0.744139,-0.21704 0.117133,-0.11713 0.175699,-0.36173 0.175699,-0.7338 v -4.70254 c 0,-0.36862 -0.05684,-0.6115 -0.170532,-0.72863 -0.110243,-0.11713 -0.360011,-0.1912 -0.749306,-0.22221 v -0.20154 h 5.617211 l 1.218996,0.35053 0.155317,0.47847 c -0.08957,-0.47543 -0.847497,-0.6123 -1.511968,-0.58669 -0.664471,0.0256 -0.916778,0.46659 -1.702015,0.16077 -0.785237,-0.30582 -1.302697,-0.16973 -1.426663,-0.14033 -0.123966,0.0294 -0.252348,0.14573 -0.294157,0.223 -0.04181,0.0773 -0.05684,0.21186 -0.05684,0.27905 v 2.3461 h 1.627802 c 0.485757,0 0.795815,-0.0879 0.930173,-0.26355 0.09302,-0.11713 0.170532,-0.36346 0.232543,-0.73897 h 0.242879 v 2.45462 h -0.242879 c -0.0689,-0.44097 -0.172254,-0.72002 -0.310057,-0.83715 -0.134359,-0.12058 -0.418578,-0.18087 -0.852659,-0.18087 H 39.48587 l 0.03458,2.31922 c 0.09021,0.64829 0.454267,0.96741 0.791611,0.95141 0.84798,0.0168 0.733235,-0.30043 1.522887,-0.27843 0.378916,0.0106 0.714253,0.24427 1.083138,0.26477 0.368885,0.0205 0.773718,-0.19933 1.256276,-0.9476 z"
                   style="stroke:none;stroke-width:0.3;stroke-miterlimit:4;stroke-dasharray:none;stroke-opacity:1"
                   id="path856"
                   sodipodi:nodetypes="cccccsscccccczzzzzcsccccccscccszc" />
              </g>
              <g
                 style="font-size:10.5833px;line-height:1.25;font-family:Nakula;-inkscape-font-specification:'Nakula, Normal';stroke:none;stroke-width:0.3;stroke-miterlimit:4;stroke-dasharray:none;stroke-opacity:1"
                 id="text851"
                 aria-label="X">
                <path
                   id="path2025"
                   style="stroke:none;stroke-width:0.3;stroke-miterlimit:4;stroke-dasharray:none;stroke-opacity:1"
                   d="m 50.7165,149.60962 h -3.141917 v -0.20154 q 0.237711,-0.0207 0.284219,-0.0207 0.527098,-0.0155 0.527098,-0.30489 0,-0.24288 -0.537433,-1.03869 l -1.007687,-1.48311 -1.255734,1.56579 q -0.552936,0.68729 -0.552936,0.9095 0,0.18604 0.170532,0.26355 0.170532,0.0775 0.635618,0.10852 v 0.20154 h -2.470126 v -0.20154 q 0.418578,-0.031 0.625283,-0.1912 0.232544,-0.18087 0.909503,-1.01286 l 1.663975,-2.04638 -1.15238,-1.68981 q -0.744139,-1.09554 -1.080034,-1.37976 -0.310058,-0.25838 -0.837156,-0.28422 v -0.20153 h 3.198761 v 0.20153 l -0.299722,0.0103 q -0.506428,0.0207 -0.506428,0.31006 0,0.32039 0.899167,1.58646 l 0.444416,0.62528 1.193722,-1.46244 q 0.423745,-0.51676 0.423745,-0.72863 0,-0.18604 -0.155028,-0.25322 -0.155029,-0.0723 -0.583942,-0.0878 v -0.20153 h 2.516634 v 0.20153 q -0.516763,0.031 -0.790647,0.20154 -0.289387,0.1757 -0.785479,0.79582 l -1.54512,1.92235 2.030877,2.90421 q 0.32556,0.45992 0.537433,0.59944 0.211873,0.13436 0.640786,0.18087 z" />
              </g>
              <g
                 style="font-size:14.4565px;line-height:1.25;font-family:Nakula;-inkscape-font-specification:'Nakula, Normal';fill:#008080;stroke:none;stroke-width:0.3;stroke-miterlimit:4;stroke-dasharray:none;stroke-opacity:1"
                 id="text839-3"
                 transform="scale(1.0491797,0.95312558)"
                 aria-label="s">
                <path
                   id="path2028"
                   style="font-style:italic;fill:#008080;stroke:none;stroke-width:0.3;stroke-miterlimit:4;stroke-dasharray:none;stroke-opacity:1"
                   d="m 47.739108,146.98802 q -0.148235,0.76235 -0.861178,1.30588 -0.712943,0.54354 -1.545886,0.54354 -0.444706,0 -1.03059,-0.14118 -0.465883,-0.11294 -0.642354,-0.11294 -0.211765,0 -0.36706,0.16941 h -0.190588 l 0.451765,-2.25177 h 0.232942 q 0.03529,1.07294 0.317648,1.51765 0.331765,0.50118 1.115296,0.50118 0.557648,0 0.931767,-0.2753 0.381177,-0.28235 0.472942,-0.76235 0.134118,-0.65647 -0.529413,-1.08706 l -0.741178,-0.47294 q -0.818825,-0.52236 -1.115296,-0.9953 -0.289413,-0.48 -0.162354,-1.08706 0.155295,-0.78353 0.804708,-1.27765 0.656472,-0.50118 1.51765,-0.50118 0.571766,0 0.97412,0.17647 0.24,0.0988 0.374118,0.0988 0.04941,0 0.225883,-0.12 l 0.02823,-0.0282 h 0.162353 l -0.331765,1.96942 h -0.218824 q -0.05647,-0.96707 -0.338824,-1.36942 -0.275295,-0.40941 -0.896473,-0.40941 -0.494118,0 -0.861178,0.27529 -0.367059,0.2753 -0.451765,0.70589 -0.120001,0.61412 0.42353,0.98823 l 1.383532,0.92471 q 1.072943,0.72 0.868237,1.7153 z" />
              </g>
            </g>
          </g>
        </g>
      </g>
    </g>
  </g>
</svg>
