<?xml version="1.0" encoding="UTF-8" standalone="no"?>
<svg
   xmlns:dc="http://purl.org/dc/elements/1.1/"
   xmlns:cc="http://creativecommons.org/ns#"
   xmlns:rdf="http://www.w3.org/1999/02/22-rdf-syntax-ns#"
   xmlns:svg="http://www.w3.org/2000/svg"
   xmlns="http://www.w3.org/2000/svg"
   xmlns:sodipodi="http://sodipodi.sourceforge.net/DTD/sodipodi-0.dtd"
   xmlns:inkscape="http://www.inkscape.org/namespaces/inkscape"
   inkscape:export-ydpi="198"
   inkscape:export-xdpi="198"
   inkscape:export-filename="/home/ivan/Scrivania/fastex2020-2.png"
   sodipodi:docname="nanotex-icon.svg"
   inkscape:version="1.0 (4035a4fb49, 2020-05-01)"
   id="svg8"
   version="1.1"
   viewBox="0 0 29.97703 22.691858"
   height="22.691858mm"
   width="29.97703mm">
  <defs
     id="defs2">
    <marker
       inkscape:isstock="true"
       style="overflow:visible"
       id="Arrow1Lend"
       refX="0"
       refY="0"
       orient="auto"
       inkscape:stockid="Arrow1Lend">
      <path
         transform="matrix(-0.8,0,0,-0.8,-10,0)"
         style="fill:#ffffff;fill-opacity:1;fill-rule:evenodd;stroke:#000000;stroke-width:1pt;stroke-opacity:1"
         d="M 0,0 5,-5 -12.5,0 5,5 Z"
         id="path875" />
    </marker>
    <marker
       inkscape:isstock="true"
       style="overflow:visible"
       id="Arrow1Send"
       refX="0"
       refY="0"
       orient="auto"
       inkscape:stockid="Arrow1Send">
      <path
         transform="matrix(-0.2,0,0,-0.2,-1.2,0)"
         style="fill:#ffffff;fill-opacity:1;fill-rule:evenodd;stroke:#000000;stroke-width:1pt;stroke-opacity:1"
         d="M 0,0 5,-5 -12.5,0 5,5 Z"
         id="path887" />
    </marker>
    <marker
       inkscape:isstock="true"
       style="overflow:visible"
       id="Arrow1Lstart"
       refX="0"
       refY="0"
       orient="auto"
       inkscape:stockid="Arrow1Lstart">
      <path
         transform="matrix(0.8,0,0,0.8,10,0)"
         style="fill:#ffffff;fill-opacity:1;fill-rule:evenodd;stroke:#000000;stroke-width:1pt;stroke-opacity:1"
         d="M 0,0 5,-5 -12.5,0 5,5 Z"
         id="path872" />
    </marker>
    <inkscape:perspective
       id="perspective965"
       inkscape:persp3d-origin="89.915188 : -175.5388 : 1"
       inkscape:vp_z="194.91516 : -128.37661 : 1"
       inkscape:vp_y="0 : 952.77151 : 0"
       inkscape:vp_x="-15.084813 : -128.37661 : 1"
       sodipodi:type="inkscape:persp3d" />
  </defs>
  <sodipodi:namedview
     inkscape:window-maximized="0"
     inkscape:window-y="0"
     inkscape:window-x="0"
     inkscape:window-height="712"
     inkscape:window-width="1366"
     inkscape:guide-bbox="true"
     showguides="true"
     showgrid="false"
     inkscape:document-rotation="0"
     inkscape:current-layer="g2044"
     inkscape:document-units="mm"
     inkscape:cy="72.507923"
     inkscape:cx="25.973011"
     inkscape:zoom="2.2893087"
     inkscape:pageshadow="2"
     inkscape:pageopacity="0.0"
     borderopacity="1.0"
     bordercolor="#666666"
     pagecolor="#ffffff"
     id="base"
     fit-margin-top="0"
     fit-margin-left="0"
     fit-margin-right="0"
     fit-margin-bottom="0" />
  <metadata
     id="metadata5">
    <rdf:RDF>
      <cc:Work
         rdf:about="">
        <dc:format>image/svg+xml</dc:format>
        <dc:type
           rdf:resource="http://purl.org/dc/dcmitype/StillImage" />
        <dc:title />
      </cc:Work>
    </rdf:RDF>
  </metadata>
  <g
     id="layer1"
     inkscape:groupmode="layer"
     inkscape:label="Livello 1"
     transform="translate(-24.671112,-132.51965)">
    <g
       id="g2020">
      <g
         id="g899">
        <g
           style="stroke:#000000;stroke-opacity:1"
           transform="translate(0.20250507,0.74795216)"
           id="g2044">
          <g
             id="g910">
            <rect
               y="131.7717"
               x="24.468607"
               height="22.691858"
               width="29.97703"
               id="rect1091"
               style="fill:#ffffff;fill-opacity:1;stroke:none;stroke-width:0.265834;stroke-opacity:1" />
            <g
               style="fill:#aa0000"
               transform="matrix(1.9550829,0,0,1.9550829,34.994394,-137.77037)"
               id="g1089">
              <rect
                 style="fill:#aa0000;stroke:none;stroke-width:0.170537"
                 id="rect881"
                 width="4.9803357"
                 height="4.205091"
                 x="-3.1655259"
                 y="142.38542" />
              <g
                 style="fill:#aa0000"
                 id="g1045"
                 transform="translate(0.03711802)">
                <rect
                   y="144.93033"
                   x="-2.6020219"
                   height="3.3905036"
                   width="1.2932971"
                   id="rect885"
                   style="fill:#aa0000;stroke:none;stroke-width:0.159717" />
                <rect
                   style="fill:#aa0000;stroke:none;stroke-width:0.159717;stroke-opacity:1"
                   id="rect885-8"
                   width="1.2932971"
                   height="3.3905036"
                   x="-0.11622727"
                   y="144.93033" />
              </g>
              <rect
                 y="139.06032"
                 x="-2.4941428"
                 height="3.0440283"
                 width="3.6375692"
                 id="rect881-9"
                 style="fill:#aa0000;stroke:none;stroke-width:0.124003;stroke-opacity:1" />
              <g
                 style="fill:#aa0000"
                 id="g1079"
                 transform="matrix(1,0,0,0.9558394,0,5.9330119)">
                <rect
                   transform="matrix(-0.81043264,-0.58583183,0.6594067,-0.75178641,0,0)"
                   y="-121.26293"
                   x="-93.946053"
                   height="3.4848669"
                   width="1.0963472"
                   id="rect883"
                   style="fill:#aa0000;stroke:none;stroke-width:0.186635" />
                <rect
                   style="fill:#aa0000;stroke:none;stroke-width:0.186635;stroke-opacity:1"
                   id="rect883-4"
                   width="1.0963472"
                   height="3.4848669"
                   x="84.831467"
                   y="-110.67214"
                   transform="matrix(-0.74177786,0.67064566,-0.59796168,-0.80152469,0,0)" />
              </g>
            </g>
            <text
               xml:space="preserve"
               style="font-size:9.76665px;line-height:1.25;font-family:Nakula;-inkscape-font-specification:'Nakula, Normal';stroke:#000000;stroke-width:0.144;stroke-miterlimit:4;stroke-dasharray:none;stroke-opacity:1"
               x="37.237793"
               y="131.60713"
               id="text1618"
               transform="scale(0.92781772,1.0777979)"><tspan
                 sodipodi:role="line"
                 id="tspan1616"
                 x="37.237793"
                 y="131.60713"
                 style="font-style:italic;fill:#008080;stroke:#000000;stroke-width:0.144;stroke-miterlimit:4;stroke-dasharray:none;stroke-opacity:1">nano</tspan></text>
            <g
               id="g1107">
              <g
                 aria-label="T"
                 id="text843"
                 style="font-size:10.5833px;line-height:1.25;font-family:Nakula;-inkscape-font-specification:'Nakula, Normal';stroke:none;stroke-width:0.1;stroke-miterlimit:4;stroke-dasharray:none;stroke-opacity:1"
                 transform="translate(1.8656551,3.9062113)" />
              <g
                 transform="translate(1.3364884,0.20204461)"
                 style="font-size:10.5833px;line-height:1.25;font-family:Nakula;-inkscape-font-specification:'Nakula, Normal';stroke:none;stroke-width:0.1;stroke-miterlimit:4;stroke-dasharray:none;stroke-opacity:1"
                 id="text851"
                 aria-label="X" />
              <g
                 aria-label="E"
                 id="text847"
                 style="font-size:10.5833px;line-height:1.25;font-family:Nakula;-inkscape-font-specification:'Nakula, Normal';stroke:none;stroke-width:0.1;stroke-miterlimit:4;stroke-dasharray:none;stroke-opacity:1"
                 transform="translate(1.8656551,3.9062113)">
                <path
                   transform="matrix(0.26458333,0,0,0.26458333,27.78527,125.35732)"
                   d="m 18.507812,51.177734 -0.234374,6.796875 h 0.957031 c 0.481769,-2.174475 1.100262,-3.567706 1.855469,-4.179687 0.768226,-0.624907 2.27214,-0.9375 4.511718,-0.9375 h 2.148438 v 20 c 0,1.692699 -0.208334,2.766958 -0.625,3.222656 -0.416667,0.442734 -1.458338,0.716376 -3.125,0.820313 v 0.761718 h 12.667968 20.232422 1.34961 7.986328 v -0.761718 c -1.17187,-0.07816 -1.972657,-0.214881 -2.402344,-0.410157 -0.429687,-0.1953 -0.644531,-0.527331 -0.644531,-0.996093 0,-0.5599 0.696619,-1.705746 2.089844,-3.4375 l 4.746093,-5.917969 3.808594,5.605469 c 1.354162,2.00519 2.03125,3.3138 2.03125,3.925781 0,0.729172 -0.664066,1.113289 -1.992187,1.152344 -0.117186,0 -0.475262,0.02597 -1.074219,0.07813 v 0.761718 h 11.875 V 76.900391 C 83.589196,76.7832 82.7819,76.555342 82.248047,76.216797 81.714194,75.86525 81.037106,75.110025 80.216797,73.951172 l -7.675781,-10.976563 5.839843,-7.265625 c 1.249996,-1.562507 2.239586,-2.565103 2.96875,-3.007812 0.690102,-0.429707 1.686202,-0.683609 2.988282,-0.761719 v -0.761719 h -9.511719 v 0.761719 c 1.080726,0.03905 1.816407,0.149858 2.207031,0.332031 0.390622,0.169273 0.585938,0.488269 0.585938,0.957032 0,0.533845 -0.533859,1.451833 -1.601563,2.753906 l -4.511719,5.527344 -1.679687,-2.363282 c -2.265618,-3.190097 -3.398438,-5.188811 -3.398438,-5.996093 0,-0.729096 0.638024,-1.119718 1.914063,-1.171875 l 1.132812,-0.03906 V 51.177734 H 57.894531 57.384766 41.066406 36.664062 Z m 28.800782,0.783204 c 0.918483,0.002 2.1489,0.162306 3.632812,0.740234 2.967825,1.155855 3.922208,-0.510666 6.433594,-0.607422 0.391103,-0.01507 0.788186,-0.0094 1.185547,0.0078 0.785917,0.1716 1.456113,0.46864 1.988281,0.91211 0.84635,0.716145 2.207035,2.454428 4.082031,5.214844 l 4.355469,6.386718 -6.289062,7.734375 c -1.705724,2.096353 -2.851563,3.37239 -3.4375,3.828125 -0.484409,0.375426 -1.210044,0.603444 -2.15625,0.697266 -1.357931,-0.109914 -2.601592,-0.95106 -4.001954,-0.990234 -2.984511,-0.08315 -2.550895,1.11623 -5.755859,1.052734 -1.275001,0.06047 -2.651236,-1.145473 -2.992187,-3.595703 L 44.222656,64.57616 H 50.375 c 1.640621,0 2.714843,0.227858 3.222656,0.683594 0.52083,0.442696 0.911466,1.497404 1.171875,3.164062 H 55.6875 v -9.277344 h -0.917969 c -0.234372,1.419251 -0.527334,2.350273 -0.878906,2.792969 -0.50781,0.663874 -1.679693,0.996094 -3.515625,0.996094 h -6.152344 v -8.867188 c 0,-0.253946 0.05682,-0.76253 0.214844,-1.054687 0.158018,-0.292044 0.642795,-0.730679 1.111328,-0.841797 0.234267,-0.05556 0.841282,-0.212941 1.759766,-0.210937 z m -15.480469,0.896484 h 2.167969 c 2.278639,0 3.789068,0.306025 4.53125,0.917969 0.651223,0.516507 1.184744,1.665689 1.613281,3.373047 v 16.158203 c 0,1.406248 -0.221355,2.330741 -0.664063,2.773437 -0.429686,0.442734 -1.367189,0.716376 -2.8125,0.820313 -1.640621,-0.07812 -3.683595,-0.332025 -4.152343,-0.761719 -0.455724,-0.429695 -0.683594,-1.373701 -0.683594,-2.832031 z m 31.132813,1.0625 c 0.05515,0.124086 0.100743,0.251508 0.126953,0.390625 z m -1.017579,19.384766 c -0.814383,1.262808 -1.567998,2.110503 -2.279297,2.673828 1.393044,-1.654372 3.201985,-3.798824 2.279297,-2.673828 z"
                   style="stroke:#fffefe;stroke-width:0.377953;stroke-miterlimit:4;stroke-dasharray:none;stroke-opacity:1"
                   id="path856" />
              </g>
            </g>
          </g>
        </g>
      </g>
    </g>
  </g>
</svg>
