<?xml version="1.0" encoding="UTF-8" standalone="no"?>
<svg
   xmlns:dc="http://purl.org/dc/elements/1.1/"
   xmlns:cc="http://creativecommons.org/ns#"
   xmlns:rdf="http://www.w3.org/1999/02/22-rdf-syntax-ns#"
   xmlns:svg="http://www.w3.org/2000/svg"
   xmlns="http://www.w3.org/2000/svg"
   xmlns:xlink="http://www.w3.org/1999/xlink"
   xmlns:sodipodi="http://sodipodi.sourceforge.net/DTD/sodipodi-0.dtd"
   xmlns:inkscape="http://www.inkscape.org/namespaces/inkscape"
   width="26.696949mm"
   height="26.696949mm"
   viewBox="0 0 26.696949 26.69695"
   version="1.1"
   id="svg8"
   inkscape:version="1.0 (4035a4fb49, 2020-05-01)"
   sodipodi:docname="nanotex-icon-2020.svg"
   inkscape:export-filename="/home/ivan/Scrivania/fastex2020-2.png"
   inkscape:export-xdpi="198"
   inkscape:export-ydpi="198">
  <defs
     id="defs2">
    <linearGradient
       gradientTransform="translate(1.5003919,-4.7163984)"
       gradientUnits="userSpaceOnUse"
       y2="142.84549"
       x2="57.564949"
       y1="142.84549"
       x1="30.868332"
       id="linearGradient2982"
       xlink:href="#linearGradient2980"
       inkscape:collect="always" />
    <linearGradient
       id="linearGradient2980"
       inkscape:collect="always">
      <stop
         id="stop2976"
         offset="0"
         style="stop-color:#a02c25;stop-opacity:1;" />
      <stop
         id="stop2978"
         offset="1"
         style="stop-color:#a02c25;stop-opacity:0;" />
    </linearGradient>
    <linearGradient
       gradientTransform="translate(-176.41201,-200.54234)"
       gradientUnits="userSpaceOnUse"
       y2="142.59894"
       x2="56.297775"
       y1="142.59894"
       x1="29.601156"
       id="linearGradient1006"
       xlink:href="#linearGradient1000"
       inkscape:collect="always" />
    <linearGradient
       id="linearGradient1000"
       inkscape:collect="always">
      <stop
         id="stop996"
         offset="0"
         style="stop-color:#3e5f73;stop-opacity:1;" />
      <stop
         id="stop998"
         offset="1"
         style="stop-color:#3e5f73;stop-opacity:0;" />
    </linearGradient>
  </defs>
  <sodipodi:namedview
     fit-margin-bottom="0"
     fit-margin-right="0"
     fit-margin-left="0"
     fit-margin-top="0"
     id="base"
     pagecolor="#ffffff"
     bordercolor="#666666"
     borderopacity="1.0"
     inkscape:pageopacity="0.0"
     inkscape:pageshadow="2"
     inkscape:zoom="5.0263776"
     inkscape:cx="41.925379"
     inkscape:cy="58.194377"
     inkscape:document-units="mm"
     inkscape:current-layer="g2060"
     inkscape:document-rotation="0"
     showgrid="false"
     showguides="true"
     inkscape:guide-bbox="true"
     inkscape:window-width="1366"
     inkscape:window-height="712"
     inkscape:window-x="0"
     inkscape:window-y="0"
     inkscape:window-maximized="0">
    <sodipodi:guide
       position="5.8599044,8.6555114"
       orientation="1,0"
       id="guide999" />
  </sodipodi:namedview>
  <metadata
     id="metadata5">
    <rdf:RDF>
      <cc:Work
         rdf:about="">
        <dc:format>image/svg+xml</dc:format>
        <dc:type
           rdf:resource="http://purl.org/dc/dcmitype/StillImage" />
        <dc:title></dc:title>
      </cc:Work>
    </rdf:RDF>
  </metadata>
  <g
     transform="translate(-27.289429,-126.35925)"
     inkscape:label="Livello 1"
     inkscape:groupmode="layer"
     id="layer1">
    <g
       id="g2100">
      <g
         id="g2060">
        <g
           id="g1715">
          <circle
             r="13.217371"
             cy="138.12907"
             cx="45.71703"
             id="path986-5"
             style="opacity:0.609564;fill:#f9f9f9;stroke:url(#linearGradient2982);stroke-width:0.261877;stroke-miterlimit:4;stroke-dasharray:none;stroke-opacity:1"
             transform="rotate(2.0946112)" />
          <circle
             style="opacity:0.609564;fill:#f9f9f9;stroke:url(#linearGradient1006);stroke-width:0.261877;stroke-miterlimit:4;stroke-dasharray:none;stroke-opacity:1"
             id="path986"
             cx="-133.46252"
             cy="-57.943413"
             r="13.217371"
             transform="rotate(-129.68686)" />
          <g
             transform="translate(-2.5810321,-2.7050658)"
             id="g1628"
             style="stroke:#000000;stroke-opacity:1">
            <g
               transform="translate(1.5960839,2.9721272)"
               style="font-size:10.5833px;line-height:1.25;font-family:Nakula;-inkscape-font-specification:'Nakula, Normal';stroke:none;stroke-width:0.3;stroke-miterlimit:4;stroke-dasharray:none;stroke-opacity:1"
               id="text843"
               aria-label="T">
              <path
                 sodipodi:nodetypes="cccscsccccccscscccccc"
                 id="path853"
                 style="stroke:none;stroke-width:0.3;stroke-miterlimit:4;stroke-dasharray:none;stroke-opacity:1"
                 d="m 38.712799,140.69653 h -0.253213 c -0.120578,-0.58221 -0.280775,-0.95256 -0.48059,-1.11104 -0.196369,-0.16191 -0.595999,-0.24287 -1.198889,-0.24287 H 36.2065 v 5.4105 c 0,0.38585 0.06029,0.63562 0.180867,0.74931 0.124023,0.11369 0.66455,0.18086 1.098631,0.20153 v 0.20154 h -3.351716 v -0.20154 c 0.440971,-0.0275 0.716577,-0.0999 0.82682,-0.21704 0.110243,-0.12057 0.165364,-0.40479 0.165364,-0.85265 v -5.29165 h -0.568438 c -0.592555,0 -0.990462,0.0827 -1.193722,0.24804 -0.199815,0.16192 -0.363457,0.53054 -0.490925,1.10587 h -0.253214 l 0.06201,-1.79833 h 5.968609 z" />
            </g>
            <g
               transform="translate(1.5960839,2.9721272)"
               style="font-size:10.5833px;line-height:1.25;font-family:Nakula;-inkscape-font-specification:'Nakula, Normal';stroke:none;stroke-width:0.3;stroke-miterlimit:4;stroke-dasharray:none;stroke-opacity:1"
               id="text847"
               aria-label="E">
              <path
                 sodipodi:nodetypes="cccccsscccccczzzzzcsccccccscccszc"
                 id="path856"
                 style="stroke:none;stroke-width:0.3;stroke-miterlimit:4;stroke-dasharray:none;stroke-opacity:1"
                 d="m 44.174362,144.75255 c 0.349991,-0.42673 -0.978136,1.15295 -0.978136,1.15295 h -5.710228 v -0.20154 c 0.382405,-0.0275 0.630451,-0.0999 0.744139,-0.21704 0.117133,-0.11713 0.175699,-0.36173 0.175699,-0.7338 v -4.70254 c 0,-0.36862 -0.05684,-0.6115 -0.170532,-0.72863 -0.110243,-0.11713 -0.360011,-0.1912 -0.749306,-0.22221 v -0.20154 h 5.617211 l 1.218996,0.35053 0.155317,0.47847 c -0.08957,-0.47543 -0.847497,-0.6123 -1.511968,-0.58669 -0.664471,0.0256 -0.916778,0.46659 -1.702015,0.16077 -0.785237,-0.30582 -1.302697,-0.16973 -1.426663,-0.14033 -0.123966,0.0294 -0.252348,0.14573 -0.294157,0.223 -0.04181,0.0773 -0.05684,0.21186 -0.05684,0.27905 v 2.3461 h 1.627802 c 0.485757,0 0.795815,-0.0879 0.930173,-0.26355 0.09302,-0.11713 0.170532,-0.36346 0.232543,-0.73897 h 0.242879 v 2.45462 h -0.242879 c -0.0689,-0.44097 -0.172254,-0.72002 -0.310057,-0.83715 -0.134359,-0.12058 -0.418578,-0.18087 -0.852659,-0.18087 H 39.48587 l 0.03458,2.31922 c 0.09021,0.64829 0.454267,0.96741 0.791611,0.95141 0.84798,0.0168 0.733235,-0.30043 1.522887,-0.27843 0.378916,0.0106 0.714253,0.24427 1.083138,0.26477 0.368885,0.0205 0.773718,-0.19933 1.256276,-0.9476 z" />
            </g>
            <g
               aria-label="X"
               id="text851"
               style="font-size:10.5833px;line-height:1.25;font-family:Nakula;-inkscape-font-specification:'Nakula, Normal';stroke:none;stroke-width:0.3;stroke-miterlimit:4;stroke-dasharray:none;stroke-opacity:1"
               transform="translate(1.0669172,-0.73203953)">
              <path
                 d="m 50.7165,149.60962 h -3.141917 v -0.20154 q 0.237711,-0.0207 0.284219,-0.0207 0.527098,-0.0155 0.527098,-0.30489 0,-0.24288 -0.537433,-1.03869 l -1.007687,-1.48311 -1.255734,1.56579 q -0.552936,0.68729 -0.552936,0.9095 0,0.18604 0.170532,0.26355 0.170532,0.0775 0.635618,0.10852 v 0.20154 h -2.470126 v -0.20154 q 0.418578,-0.031 0.625283,-0.1912 0.232544,-0.18087 0.909503,-1.01286 l 1.663975,-2.04638 -1.15238,-1.68981 q -0.744139,-1.09554 -1.080034,-1.37976 -0.310058,-0.25838 -0.837156,-0.28422 v -0.20153 h 3.198761 v 0.20153 l -0.299722,0.0103 q -0.506428,0.0207 -0.506428,0.31006 0,0.32039 0.899167,1.58646 l 0.444416,0.62528 1.193722,-1.46244 q 0.423745,-0.51676 0.423745,-0.72863 0,-0.18604 -0.155028,-0.25322 -0.155029,-0.0723 -0.583942,-0.0878 v -0.20153 h 2.516634 v 0.20153 q -0.516763,0.031 -0.790647,0.20154 -0.289387,0.1757 -0.785479,0.79582 l -1.54512,1.92235 2.030877,2.90421 q 0.32556,0.45992 0.537433,0.59944 0.211873,0.13436 0.640786,0.18087 z"
                 style="stroke:none;stroke-width:0.3;stroke-miterlimit:4;stroke-dasharray:none;stroke-opacity:1"
                 id="path2025" />
            </g>
            <text
               xml:space="preserve"
               style="font-size:9.76665px;line-height:1.25;font-family:Nakula;-inkscape-font-specification:'Nakula, Normal';stroke-width:0.244167"
               x="36.94725"
               y="130.74048"
               id="text1618"
               transform="scale(0.92781772,1.0777979)"><tspan
                 sodipodi:role="line"
                 id="tspan1616"
                 x="36.94725"
                 y="130.74048"
                 style="font-style:italic;fill:#008080;stroke:none;stroke-width:0.244167">nano</tspan></text>
          </g>
          <g
             aria-label="2020"
             transform="rotate(0.34521467,614.06916,-766.05917)"
             id="text886"
             style="font-size:3.42253px;line-height:1.25;font-family:Nakula;-inkscape-font-specification:'Nakula, Normal';fill:#550000;stroke-width:0.0855633">
            <path
               d="m 49.292878,152.23449 -0.282425,0.4696 h -1.335255 l 0.0084,-0.0418 0.738651,-0.64674 q 0.539784,-0.47127 0.623342,-0.88906 0.04345,-0.21558 -0.0635,-0.34927 -0.106954,-0.13369 -0.322533,-0.13369 -0.177143,0 -0.305822,0.0969 -0.127008,0.0969 -0.280755,0.3476 l -0.06852,-0.0167 q 0.140377,-0.31418 0.314178,-0.46793 0.240646,-0.21224 0.53477,-0.21224 0.267385,0 0.414447,0.17548 0.148733,0.1738 0.09693,0.42948 -0.07687,0.38604 -0.60663,0.84561 l -0.695201,0.60162 h 0.818867 q 0.125336,0 0.205552,-0.0551 0.04846,-0.0351 0.163773,-0.17046 z"
               style="font-style:italic;fill:#550000;stroke-width:0.0855633"
               id="path2072" />
            <path
               d="m 51.139507,151.57438 q -0.06183,0.31084 -0.207224,0.58491 -0.143719,0.2724 -0.320862,0.41445 -0.222264,0.17881 -0.481293,0.17881 -0.304151,0 -0.452884,-0.23396 -0.09191,-0.14205 -0.115309,-0.41278 -0.02173,-0.27073 0.03509,-0.55148 0.06016,-0.30248 0.203881,-0.57321 0.145391,-0.27072 0.322533,-0.41277 0.220593,-0.17715 0.492992,-0.17715 0.337573,0 0.482964,0.32922 0.145391,0.32922 0.04011,0.85396 z m -0.330889,0.007 q 0.220593,-1.10129 -0.220593,-1.10129 -0.44787,0 -0.668463,1.10463 -0.215579,1.0779 0.228949,1.0779 0.444527,0 0.660107,-1.08124 z"
               style="font-style:italic;fill:#550000;stroke-width:0.0855633"
               id="path2074" />
            <path
               d="m 52.715408,152.23449 -0.282425,0.4696 h -1.335255 l 0.0084,-0.0418 0.738651,-0.64674 q 0.539784,-0.47127 0.623342,-0.88906 0.04345,-0.21558 -0.0635,-0.34927 -0.106954,-0.13369 -0.322533,-0.13369 -0.177143,0 -0.305822,0.0969 -0.127008,0.0969 -0.280755,0.3476 l -0.06852,-0.0167 q 0.140377,-0.31418 0.314177,-0.46793 0.240647,-0.21224 0.534771,-0.21224 0.267385,0 0.414447,0.17548 0.148733,0.1738 0.09693,0.42948 -0.07687,0.38604 -0.60663,0.84561 l -0.695202,0.60162 h 0.818867 q 0.125337,0 0.205553,-0.0551 0.04846,-0.0351 0.163773,-0.17046 z"
               style="font-style:italic;fill:#550000;stroke-width:0.0855633"
               id="path2076" />
            <path
               d="m 54.562037,151.57438 q -0.06183,0.31084 -0.207224,0.58491 -0.143719,0.2724 -0.320862,0.41445 -0.222264,0.17881 -0.481293,0.17881 -0.304151,0 -0.452884,-0.23396 -0.09191,-0.14205 -0.11531,-0.41278 -0.02173,-0.27073 0.03509,-0.55148 0.06016,-0.30248 0.203881,-0.57321 0.14539,-0.27072 0.322533,-0.41277 0.220593,-0.17715 0.492992,-0.17715 0.337573,0 0.482964,0.32922 0.145391,0.32922 0.04011,0.85396 z m -0.330889,0.007 q 0.220592,-1.10129 -0.220593,-1.10129 -0.44787,0 -0.668463,1.10463 -0.215579,1.0779 0.228949,1.0779 0.444527,0 0.660107,-1.08124 z"
               style="font-style:italic;fill:#550000;stroke-width:0.0855633"
               id="path2078" />
          </g>
        </g>
      </g>
    </g>
  </g>
</svg>
